<svg xmlns="http://www.w3.org/2000/svg" viewBox="0 0 1666.38 1666.38"><defs><style>.cls-1{fill:#201112;opacity:0.85;}.cls-2{opacity:0.93;}.cls-3{fill:#e3b7ab;}</style></defs><g id="Capa_2" data-name="Capa 2"><g id="Pattern_Ñëîé_23" data-name="Pattern Ñëîé 23"><rect class="cls-1" x="244.04" y="244.04" width="1178.31" height="1178.31" transform="translate(833.19 -345.12) rotate(45)"/><g class="cls-2"><path class="cls-3" d="M532.9,697.87A79.2,79.2,0,0,1,540.46,686c.86-1.13-1,1.15,0,.06.42-.51.84-1,1.27-1.52.7-.81,1.41-1.61,2.14-2.4,1.75-1.91,3.59-3.74,5.48-5.52,1.73-1.63,3.52-3.2,5.35-4.72,1.09-.91,2.2-1.81,3.32-2.68.44-.35.95-.67,1.36-1-1.39,1.28-1.23.92.16-.09,4.27-3.09,8.72-6,13.28-8.61,1-.59,2.06-1.17,3.09-1.75,2.75-1.57-2.74,1.44-.83.44l2-1q3.57-1.85,7.2-3.53c1.21-.56,2.43-1.11,3.65-1.64s5.94-2.3.14-.1c2.45-.93,4.88-1.93,7.36-2.82,1.35-.49,2.71-1,4.08-1.42,1.61-.53,5.81-1.65-.88.25,2.56-.72,5.09-1.49,7.66-2.15a25.26,25.26,0,0,0,3.58-.87c.14-.06-5.51,1.18-2.7.61l1.57-.33c1.16-.23,2.32-.45,3.48-.65,1-.17,3.37-.14,4.18-.67,0,0-5,.61-2.42.33l1.47-.17c1.09-.12,2.17-.22,3.26-.31s2.12-.13,3.18-.2,2.86.06-2,0c.81,0,1.62,0,2.43,0,6.1,0,12.2,0,18.3.23,5.45.16,10.91.43,16.35.83,2.51.19,5,.41,7.52.66l3.2.35c2.72.3-2.3-.31-.52-.06l1.92.25a157.49,157.49,0,0,1,25.24,5.39c1.69.53,3.38,1.09,5.05,1.7.55.2,3.55,1.41.87.3.93.39,1.86.76,2.78,1.16a98.4,98.4,0,0,1,9.43,4.68c14.47,8.22,26.07,20.25,36.34,33.18l-1.09-1.37c17.14,21.7,32.15,45.14,43.06,70.6a261.67,261.67,0,0,1,20.79,85,227.89,227.89,0,0,1-1.83,48.41l.26-1.73A199.34,199.34,0,0,1,787,961q-4.37,7.75-9.43,15.08A153.14,153.14,0,0,1,766.9,990a195.32,195.32,0,0,1-13.52,14.23c-2.12,2-4.27,4-6.52,5.91-.56.47-1.13.93-1.7,1.39-.2.16-2.55,1.74-.78.61s-.65.43-.83.56c-.72.51-1.45,1-2.19,1.48q-1.86,1.22-3.76,2.34c-.75.44-1.61.82-2.32,1.32.18-.13,3.51-1.82,1.21-.67-1.35.67-2.68,1.35-4,2s-7.56,3-1.48.73c-2.74,1-5.77,2.7-8.67,3.12,0,0,5.24-1.57,2.28-.73l-2.7.78c-1.67.47-3.35.9-5,1.31l-2.31.55c6-1.5,3.24-.72,1.79-.42s-2.83.57-4.25.83c-1.58.29-3.18.56-4.77.82s-8.3.85-2.11.34c-6.91.57-13.76,1.41-20.7,1.73-1.55.07-3.5-.22-5,.18.29-.08,3.78-.07,1.07,0l-3,0c-3.32,0-6.63,0-10,0q-10.3-.17-20.59-.81c-3.14-.19-6.28-.39-9.41-.67l-1.75-.17c-3.07-.26,2.79.4-.27,0-1.62-.23-3.24-.46-4.86-.74a142.73,142.73,0,0,1-18.13-4.34,147.89,147.89,0,0,1-36.93-17.4A127.27,127.27,0,0,1,545,976.84l1.09,1.37c-11.52-14.77-18.76-32.84-16-51.77l-.26,1.73c1.36-8.54,4.67-16.8,8.3-24.61a112.58,112.58,0,0,1,6.49-12.11q1.82-2.94,3.84-5.73c.63-.86,1.27-1.72,1.94-2.56-.95,1.18,0,0,.2-.2.51-.56,1-1.14,1.5-1.7a60.69,60.69,0,0,1,4.76-4.73c.77-.69,1.59-1.32,2.38-2,1.32-1.13-2,1.33-.52.39.61-.4,1.19-.84,1.81-1.23s3.69-2.19,1.22-.8.77-.28,1.34-.57c-5.16,2.63-1.76.81-.25.26,2.55-.93,5-2.1,7.51-3.2,2.86-1.27-.83.42-1.18.47a11.93,11.93,0,0,0,2.11-.85c1.23-.48,2.46-.94,3.69-1.4s2.46-.88,3.69-1.3l2.11-.71c3.27-1.11-3.63,1.08-1.27.39,2.63-.77,5.25-1.52,7.9-2.2,1.22-.31,2.46-.6,3.68-.89,2.44-.59-4.35.92-1.9.42.88-.17,1.76-.37,2.63-.54q3.68-.74,7.38-1.33c1.38-.22,2.83-.55,4.22-.63-.27,0-4.49.56-1.49.2l2.11-.25c5.44-.63,10.91-1,16.39-1.31l3.71-.16c2.75-.11-.49,0-.87,0,.69,0,1.43,0,2.12,0q4.26-.07,8.52,0c5.35,0,10.7.18,16.05.39,22.49.91,44.92,3,67.42,3.85a533.15,533.15,0,0,0,70.8-2.67c20.06-1.95,40.34-4.6,59.38-11.52,15.84-5.77,29.8-14.45,40.05-28s16.08-30.19,19-46.74c6.64-38-.22-79.06-19.64-112.53q-3.45-5.94-7.46-11.52L842.89,662c25.9,10.48,47.79,28.94,65.12,50.62l-1.09-1.38c18.37,23.22,32.14,50.51,38.31,79.55.49,2.28,5.21,2.61,6.63,2.66a45.87,45.87,0,0,0,11.25-1.29,51.76,51.76,0,0,0,11.82-3.92c2.69-1.34,6.34-3,7.72-5.81,18-37.32,40.31-72.38,60.23-108.68,5.56-10.15,10.94-20.39,16-30.81l-37.42,8.36c1.64,70.26-3.66,140.68,2.2,210.84,3.92,46.81,11.71,98.71,46.26,133.76a80.76,80.76,0,0,0,30.25,19.4c14.94,5.45,31,5.06,46.56,2.93a51.38,51.38,0,0,0,14.35-4.48c2.11-1,6.71-3.24,7.72-5.81,2.51-6.4-13.29-3.92-15.08-3.67,6.68-.92-.5,0-2.07.06-1.24.07-3.94-.24.78,0-.79,0-1.61,0-2.41,0-1.7,0-3.39-.16-5.1-.27-3.16-.2,2.29.4-.17,0-.75-.12-1.5-.23-2.24-.36a66.28,66.28,0,0,1-9.33-2.33c-.7-.22-1.38-.48-2.07-.71-2.3-.78,1.8.81-.42-.16-1.43-.63-2.85-1.24-4.25-1.94-11.19-5.56-20.56-14.07-28.31-23.78l1.09,1.38c-20.32-25.81-29.53-58.23-34.09-90.25-7.4-51.87-7-104.42-6.24-156.69.42-29.34.93-58.69.24-88,0-2.24-5.7-2.63-6.62-2.66a45.39,45.39,0,0,0-11.25,1.29,51.73,51.73,0,0,0-11.82,3.91c-2.69,1.35-6.34,3-7.72,5.82-18,37.32-40.31,72.38-60.23,108.68-5.56,10.14-11,20.39-16,30.81l37.42-8.36c-9.33-43.88-36-85.75-71.79-112.8a143.75,143.75,0,0,0-32.74-18.74c-6.8-2.76-15.07-.76-21.79,1.35-3.51,1.1-7.33,2.4-10.38,4.5-1.15.79-5.76,3.74-4.41,5.61C860.7,687,870.45,719.76,871.31,752a159.93,159.93,0,0,1-1.58,27.31l.26-1.74a124.49,124.49,0,0,1-10.21,34.68,92.11,92.11,0,0,1-7.57,13.23c-.64.91-1.31,1.79-2,2.69-1.29,1.75,1-1.15.11-.13-.36.39-.68.82-1,1.22a58.75,58.75,0,0,1-4.52,4.68c-.67.62-1.35,1.22-2,1.81-1,.82-3.79,2.41-.21.26-1.87,1.12-3.66,2.44-5.53,3.59s4.15-2.13.62-.36c-.92.46-1.86.88-2.79,1.31-3.07,1.43,4.76-1.84,1.14-.47-1.21.46-2.42.89-3.64,1.31-2.84,1,5-1.48,2.74-.84l-1.61.47q-1.66.48-3.33.9c-1,.25-5,1.17-.92.25s-.71.12-1.79.33c-2.55.49-5.1.92-7.67,1.31l-4,.57c6.52-.95.69-.1-.85.08-13.67,1.62-27.46,2.9-41.21,3.58-1.92.09-3.85.16-5.78.23-2.84.11.14,0,.6,0-1.14.08-2.3.05-3.45.06-3.8.06-7.6,0-11.4,0-7.87-.1-15.74-.41-23.6-.82-30.24-1.59-60.36-4.55-90.67-3.38a272.84,272.84,0,0,0-49.85,6.69,228.4,228.4,0,0,0-26,7.61c-4.32,1.54-8.55,3.28-12.78,5-1.06.44-2.11.89-3.16,1.35-1.44.63-2.46.29,1.39-.58-2.86.65-5.75,2.19-8.39,3.41-24,11.15-39.9,35.87-46.6,60.89-12.89,48.14,34.41,87.08,74.11,102.82a155.15,155.15,0,0,0,37.48,10,342.77,342.77,0,0,0,40.64,2.38c31.46.25,63.27-3,93.07-13.56,14.36-5.11,28-12.07,40-21.55,10-7.88,18.7-17.54,26.61-27.41A194.8,194.8,0,0,0,840,917.6c14.18-45.32,12.15-94.67-1.84-139.76A273.72,273.72,0,0,0,808.27,713c-10.57-16.75-22.45-33.49-36.24-47.76a108.55,108.55,0,0,0-40.88-26.69c-19.77-7.35-41.46-9.28-62.37-10.1-13-.51-26.35-1-39.31.61a223.83,223.83,0,0,0-44.29,10.4c-25,8.53-49.85,21.37-69.37,39.43-7.95,7.34-15.13,15.93-20.07,25.59-3.12,6.11,13.1,4,15.08,3.67a54.71,54.71,0,0,0,14.36-4.48c2.72-1.37,6.26-3,7.72-5.81Z"/></g></g></g></svg>