<svg xmlns="http://www.w3.org/2000/svg" viewBox="0 0 2000.59 2003.86"><defs><style>.cls-1{fill:#f7f7f7;}.cls-2{fill:#bf697c;}.cls-3{fill:#e3b7ab;}.cls-4{fill:#f6eaeb;}.cls-5{fill:#945849;}.cls-6{fill:#c58778;}.cls-7,.cls-9{fill:#201112;}.cls-7{opacity:0.85;}.cls-8{fill:#fff;}.cls-10{fill:#2a2927;}.cls-11{fill:#da8577;}.cls-12{opacity:0.93;}</style></defs><g id="Capa_2" data-name="Capa 2"><g id="Pattern_Ñëîé_23" data-name="Pattern Ñëîé 23"><rect class="cls-1" x="0.59" y="3.86" width="2000" height="2000"/><path class="cls-2" d="M824.36,606.78c20.35-58.67,33.69-132.48,31-204.08-4.06-106.62-43.73-208.35-148.87-247.89-117.74-44.28-255.25-.56-366.44,43C216.34,246.34,102.88,317.42,0,401.27v779.18C357.82,1239.27,714,924.92,824.36,606.78Z"/><path class="cls-3" d="M1861.82,1364c-113.37-61.58-311.74,21.67-418.7,72-194.75,91.63-318.07,323.11-330.89,531.35-.65,10.62-1.11,21.36-1.27,32.15h889V1537.1c-16.76-42.55-39.33-82.12-69.88-116.43C1910.45,1398.56,1888,1378.17,1861.82,1364Z"/><path class="cls-4" d="M1199.58,300.72c91.1,41.22,175.64,98.92,225.92,187.72,79.38,140.22,19.88,372.8,159.38,480.07,37.57,28.89,88.4,38.13,134.86,28.78,30.83-6.21,60.41-20.07,88.42-38.66-56.89-13.25-103.07-48.19-111.2-116.08-4-33.07,2.66-66.37,8.56-99.14,16.79-93.37-15.88-157.17-54.67-239.48-32.8-69.61-54.54-141.53-10.79-212.09C1684.8,219.7,1761.42,156.71,1841.74,129c52.15-18,104.89-21.84,156.62-15.3V5.65H878.1C901.69,187.2,1053.49,234.61,1199.58,300.72Z"/><path class="cls-5" d="M1843.37,122.8c-80.31,27.72-156.94,90.71-201.67,162.85-43.75,70.56-22,142.48,10.79,212.09,38.79,82.31,71.46,146.11,54.66,239.48-5.89,32.78-12.51,66.07-8.55,99.14,8.13,67.9,54.3,102.83,111.2,116.09,60.4,14.07,132.87,3.69,184.71-17.65,1.84-.76,3.66-1.54,5.49-2.32v-825C1948.27,101,1895.52,104.81,1843.37,122.8Z"/><path class="cls-6" d="M237.46,1679C168.67,1651.34,85.78,1628.62,0,1617.26v382.21H716.74C576.59,1860.28,409.15,1747.93,237.46,1679Z"/><rect class="cls-7" x="431.12" y="414.71" width="1178.31" height="1178.31" transform="translate(1008.67 -427.42) rotate(45)"/><path class="cls-8" d="M78.25,579.44c9,2.7,18.09,5,27.23,7.14q-1.1-8.3-2.45-16.57c-16.87-.63-30.29-4.15-46.36-11.17-17.83-7.78-35.56-15.41-52.57-24.72L0,531.85v14l1.62.84C26.14,559,51.7,571.47,78.25,579.44Z"/><path class="cls-9" d="M1604.28,69.85a176.68,176.68,0,0,1-1.23,43.77c-19.68,2.22-39,7.26-57.69,13.88-38.39,13.65-77.87,34.5-105.65,64.95-14.35,15.74-24.82,35.35-25.82,57-1.08,23.13,10.4,46.54,32.16,56,22.16,9.62,47,1.74,65.35-12.17a268.42,268.42,0,0,0,53.68-54.71c23.1-31.31,40.23-67.73,47.34-106.06a136.14,136.14,0,0,1,35.39.93,87.16,87.16,0,0,1,47.88,25.43c30,30.77,32.47,77.22,21.78,116.85a160.65,160.65,0,0,1-8.1,22.84c-35.12-4.86-72.3,4-94.33,33.88-7.41,10.05-14.66,22.25-14.43,35.16.19,10.84,5.57,21.71,16.39,25.1,10.11,3.18,23,1,32.61-2.67,12.12-4.59,22.84-12.65,32-21.69a175.27,175.27,0,0,0,35.14-50c1.18-2.5,28.86,8.28,31.61,9.49A113.18,113.18,0,0,1,1778.78,347c25.19,22.69,34.56,60.46,41.72,92.34.33,1.5.65,3,1,4.52-29.18.28-57,20.29-66,49.12a44.87,44.87,0,0,0,1.57,31.95c8.19,18,32.18,26.27,50.68,22,16.91-3.93,24.82-18.94,27.68-34.83,2.7-15,2-30.64.09-45.72-.09-.69-.19-1.38-.28-2.07,0,0,14.86,4.64,16.3,5.32a84.61,84.61,0,0,1,17,10.89c10.19,8.29,18,18.32,25.36,29.14,22.31,33,36.9,70.88,45.76,109.58.67,2.92,3.48,9.3,7.44,8.35s2.8-8.4,2.22-11a398.25,398.25,0,0,0-34.69-94.11c-15.51-29.88-37.68-62.72-70.7-74.81a62.45,62.45,0,0,0-11.86-3c-1.37-.22-9.07-36.85-10.39-41-13.92-43.47-37.21-80.26-81.67-97.29a136.83,136.83,0,0,0-16.17-5.08A180.21,180.21,0,0,0,1734.07,233c-1.42-30.42-11.75-61.46-31.41-85-22.25-26.64-53.38-37.21-87.48-35.41q.9-9.78.87-19.66a205.57,205.57,0,0,0-16.31-78.7c-1.24-3-2.56-6-3.93-8.92H1584l.37.69A173.39,173.39,0,0,1,1604.28,69.85Zm-6.47,68.72c-12.56,46.3-40,88.59-75.16,121-16.65,15.35-35.86,31-59.77,30.72-24.61-.31-42.82-18.61-37.35-43.71,6.08-27.87,31.14-49.09,53.67-64.19C1514,159,1554,142.07,1595.34,134.81c1.2-.21,2.4-.41,3.61-.6C1598.58,135.66,1598.21,137.12,1597.81,138.57Zm89.52,196.76c-15.58,20-40.22,42.35-67.82,39.87a8,8,0,0,1-6.41-3.7c-4.13-7.49,7.87-19.26,12-24.38,13.43-16.5,32.54-26.2,53.4-29.38a114.91,114.91,0,0,1,21.57-1.18A176.69,176.69,0,0,1,1687.33,335.33Zm137.36,128q.42,3.24.74,6.52c1.09,11.47,1.59,23.59-1.81,34.75-2,6.59-5.6,12.84-11,17.09-10.33,8.12-30.68,9.27-41.42,1.48-27.88-20.25,21.21-53.36,38.86-57.93A59.42,59.42,0,0,1,1824.69,463.36Z"/><path class="cls-10" d="M1195,80.81c-14.42,17.14-31,37.46-34.31,60.36-.67,4.56.41,10.21,3.69,13.65,2.62,2.75,6.2,2.41,6.83-1.84,3.13-21.44,19.75-40.62,33.31-56.51,15.64-18.33,32.13-36.5,50-52.69A419.41,419.41,0,0,1,1312.3,0h-33.66c-10.3,7.57-20.27,15.59-29.8,24.12C1229.53,41.41,1211.71,61,1195,80.81Z"/><path class="cls-8" d="M135.26,597.35c20.85,6.47,41.92,22.92,57.42,38.22,7.27,7.17,13.58,14.67,17.77,24.23,5.33,12.15,10.46,24.39,15.74,36.56,9,20.79,17,45.86,31.81,63,15.7,18.2,38.24,26.56,60.75,31,22.9,4.53,45.73,9.76,68.55,14.6,12.51,2.65,24.74,6.59,36.87,10.66,6.42,2.15,20.4,11.16,26.81,6.9-5.34-6.38-12.3-10.52-17.21-17.44A89.31,89.31,0,0,1,424.71,789c-6.62-15.07-13.29-30-21-44.53-14.11-26.37-32.29-63.82-61.15-75.39C327.24,663,310,657.54,293.66,655.78c-16.82-1.81-33.66-1.69-50.4-4.61-15.61-2.72-30.44-6.39-43.19-16.59s-24.2-22.42-36.74-33.08c9.44,0,19.63,3.64,29,5.27a198.56,198.56,0,0,0,26.88,2.62c18.78.7,37.84-.66,56.53.5C293.9,611,309,622.21,324.85,630.37c16.59,8.52,33.28,17.48,51.59,21.18,37.77,7.61,78-.66,111.29-19.7,16.53-9.46,33-19.22,48.95-29.62,8.49-5.51,16.92-11.11,25.36-16.69,6-3.94,16.35-8,19.51-14.74-3.9-1.17-7,.26-11,.46-4.65.23-9.6-.46-14.25-.75-9.79-.61-19.11-2.12-28.34-5.6-17.2-6.5-33.47-15.45-50.61-22.1a164.07,164.07,0,0,0-98.19-6.54c-33.6,8.26-56.59,33.32-83.28,54.49-5.84,4.63-13.35,11.52-20.59,13.16-6.81,1.55-14.9-.32-21.81-.63-17.08-.79-33.39-1.54-50.34-4.36-26.31-4.37-52.38-8.6-78.22-14.78.43,3.5.84,7,1.21,10.52Q130.7,595.94,135.26,597.35Zm80.81,59.59c15,16,29.46,35,48.1,46.55,5.39,3.34,56.52,32.93,54,36-12.51-4-25.29-6.35-37.94-9.82-11.6-3.18-20.64-10.17-30-17.76-9-7.36-16-14.27-21-25.07C226.72,681.48,213.91,662.32,216.07,656.94Zm33.15,75.23c-1.65-3.2-13.78-25.4-11.76-26.92,13.29,12.87,28.33,24.36,46.11,29.08,8.58,2.28,17.48,3.36,25.91,6.19,4.45,1.49,19,6.13,20.07,11.63-11,.8-20.65,1-31.34,4.65-8.86,3-20.91,7.41-29.64,1.92C260.24,753.48,253.67,740.77,249.22,732.17Zm114.3,64.61c-29.93-8.07-62.16-14.53-88.62-31.49.91-2.15,10.89-.7,13.34-1.16,4.71-.9,9.25-2.84,13.83-4.26,9.57-3,19.36-4.61,29.33-3.36,8.35,1,17.83,7.24,21.38,15.14C354.25,774.92,364.27,795.84,363.52,796.78Zm69.85,17.64c-16.9-6-33.22-11.47-50.9-14.33C369.38,798,357.55,786,356.56,771.33c7.08,3,11.69,7.37,19.68,8.74,8.27,1.41,15.71,3.12,23.29,7C403.71,789.16,437.83,808.6,433.37,814.42ZM368.8,701a243,243,0,0,1,27.6,44.17c2.4,4.87,22.88,43.22,21.33,44.57a183.16,183.16,0,0,1-31-42.08C384.41,743.15,366.7,702.57,368.8,701Zm-43.94-30.39c23.84,13.92,40.89,27.43,50,55.29,4.39,13.4,9.2,25.38,17.14,37,2.26,3.31,21.71,26.59,20.9,27.92a110,110,0,0,0-37.27-14.93c-13.3-2.81-20.5-10.67-22.2-24.55-1.95-15.94-3.32-32.26-8.68-47.46a81.48,81.48,0,0,0-10.08-20.08C333.05,681.49,323.2,672.89,324.86,670.58Zm-46.21-10.31c11,.77,25.83,1.74,35.79,7,8.12,4.26,16.27,15.82,21.22,23.68,12.2,19.35,10.3,43.14,14.85,64.85-7.8-3-13.6-16-18.06-22.63-5.82-8.71-10.69-17.78-15.83-26.91a161.32,161.32,0,0,0-18.57-26.37C295.39,676.77,278.1,662.31,278.65,660.27Zm-17.46.73c18.64-.77,36.61,20.17,45.93,35.61,6.06,10,10.91,20.78,17.13,30.69,5.37,8.55,12.69,16.33,16.93,25.54-2.38,1.86-20.6-17.11-23.33-19.75-7.6-7.33-13.62-15.83-19.81-24.43C294.31,703.5,260.27,662.49,261.19,661Zm-15.47-3.93c10,3,15.25,8.95,21.61,17,12.63,15.91,24.8,32.06,37.12,48.22-2.81,3.63-43.05-24-47.82-27.65-16.71-12.77-27.78-31.73-44.28-44.61C223.4,652.29,234.89,653.83,245.72,657.07ZM488.2,618.85c-13.59,8.91-26.66,15-41.78,20.57-14.71,5.46-28.06,7.64-43.64,8.23-4,.16-41-2.33-39.91-5.93,15.63,0,30.6,1,45.9-3.3a175.86,175.86,0,0,0,38.65-16.33c13-7.38,25.36-16.22,38.91-22.46,10.84-5,27.74-11.79,39.62-8.08C517.14,602.82,500,611.12,488.2,618.85Zm38.73-49.1c7.61,3.07,15.25,4.46,23.21,6.21-6.29,5-12.89,10.59-20.95,12-7.62,1.37-15.38.58-23.16,2.11-15.64,3.08-29.63,10.14-43,18.92-14.55,9.56-29.66,18.13-46.22,23.28-5.14,1.6-44.14,12.42-45.81,5.57,16.94-6.58,33.07-10.21,48.92-20,14.66-9.06,29.41-19.57,43.14-30.09,12.28-9.42,26.93-21.69,42.6-23.9C513.34,562.81,520,567,526.93,569.75Zm-52.9-24c9.3,2.76,24.77,6.49,31.16,14.51-10.84,4.53-20.67,8.79-30.68,15.22-9.39,6-18.81,12.21-29.06,16.58-20.19,8.6-42.22,7.7-63.6,9.26,5.37-11,19.2-20.92,27.58-29.62s17.19-17.91,27.94-23.71C449.79,541.33,460.87,541.9,474,545.8Zm-29.6-5.21C419.59,555.4,393.78,583,362.9,581.22c11.35-11.57,22.48-25.81,36-34.78C412.08,537.63,429.34,536.89,444.43,540.59Zm-44.18.63c-14.63,9.89-25.22,25.73-40,35.21-6.47,4.16-14.15,3.38-21.49,3.86-3.12.2-22.69,3.41-23.19,2.41C336.85,563.73,369.71,535.73,400.25,541.22Zm-88.23,47c8.63-3.78,18.48-5.19,27.76-4.9,10.23.31,20.36,1.75,30.57.13,5.53-.88,10.83-2.7,16.2-4.23,3.2-.91,10.06-4.17,13.16-3-13.88,15.41-25.51,28.35-46.2,32.52-20,4-40.33.11-59.74-5.12C296,597.27,306.26,590.79,312,588.27Zm54.44,21.4c13.38-4,25.32-5.28,39.21-6,4.67-.23,34.61-6.28,35.43-4.49-11.86,8.58-23.88,16.76-36.83,23.47C392,629,378.1,632.16,364.79,635.35,349.51,639,340,632,327,624.72c-3.62-2-34-15.29-33.84-16.93C318.18,611.09,341.2,617.14,366.46,609.67Z"/><path class="cls-8" d="M133.77,570.69c8.43-2.72,17.94-10.49,26.44-11.14,8.33-.64,16.84,3.31,25.7,2.49a97.58,97.58,0,0,0,28.49-7.56C249,540.1,270.94,506.81,286,473.19c14.79-33,16-67.36,20.59-102.89.58-4.47,5.72-21.94,3.39-25.58-3-4.74-6.67,3.76-8.91,6.43-10.4,12.39-27.89,19.49-42.79,23.82-32.16,9.35-63,20.41-85.93,47.07-23.08,26.85-38.7,60-31,96.54,2,9.37,5.24,18.37,7.3,27.72,1.52,6.94,2.24,10.08-4.11,13.29a96.14,96.14,0,0,1-21.82,7.75q.47,3.23.89,6.46C127,572.79,130.39,571.78,133.77,570.69Zm55.71-16.2c-2.8.16-19.21,1.88-20.2-1.29a140,140,0,0,0,31.31-22.59c2.52-2.38,25.62-26.16,26.58-24.48-4.86,14.35-7.06,27.52-17.76,38.79C203.19,551.47,198.34,554,189.48,554.49Zm23.09-7.37c3.82-5.24,8.09-10.35,10.89-16.28,3-6.34,2.88-13.86,6.23-19.88,7.58-13.64,27.73-14.86,41.16-19.26C270.62,504.73,215.64,551.72,212.57,547.12Zm40.69-53.58c-11.88,3.24-23.78,4.86-33.88,12.83-11.25,8.88-20.46,20.88-31.16,30.53-5.51,5-22.86,19.42-29.57,13.23-8.16-7.54,14.74-22,19.71-26.8,10.17-9.74,18.78-19.81,32.42-24.14,13.2-4.18,27.23-4,40-9.94,3.92-1.81,31-21.85,32.07-20.82C276.85,483,268.08,489.51,253.26,493.54Zm-1.94-8.07c-8.82,4.27-18,5.7-27.43,7.66-8.08,1.68-16.29,4.88-24.51,5.48,9.47-17.09,25.85-24.32,43.73-28.75,18.49-4.58,32.86-13.94,47.22-26.64C286.52,463.81,269,476.92,251.32,485.47ZM266,458c-13.83,7.69-29.73,9.25-44,16-15,7-20.44,16.35-29.51,29.79-4.49,6.65-10,12.07-15.87,17.36-4.69,4.22-11.8,13.83-17.62,15.69-4.35,1.39-1.76-1.62-.36-5,1.59-3.81,3.08-7.75,4.51-11.63,2.88-7.82,4.9-15.5,9.87-22.25,9.1-12.37,24.39-23,37.34-30.54,13.94-8.09,28.94-9.22,43.88-14.33C270.59,447.45,283,438.5,294.06,425,294.07,440.68,277.84,451.39,266,458Zm1-13.17c-8.66,4.94-17.82,7.18-27.44,9-3.74.72-27.92,8.4-28.43,7.72,5.67-8.17,11.32-15.71,16-24.61,4.13-7.88,8.79-15.06,17.24-18.33,9.48-3.68,20.2-2.72,29.91-6.23,9.24-3.34,17-8.49,24.59-14.78C296.67,417.69,284,435.16,267.07,444.79ZM211.26,400a158.8,158.8,0,0,1,32.32-14.46c5.06-1.64,33.79-12.31,36.17-8.74-18.93,15.86-39.34,26.85-61.41,37.48-10.53,5.06-22,8.86-31.77,15.46-4.76,3.22-9,7.24-13.2,11.14-2.75,2.53-8.79,10.49-12.42,10.48C173,429.25,190.15,412.51,211.26,400ZM227,412.4c13.64-6.32,26.94-11.67,39.5-20.22,12.73-8.67,22.82-21.12,35-30.78.07,8.06,1.73,20.53-1.52,27.86-2.6,5.86-9.06,11.1-14.17,14.45-13.93,9.1-30.29,9.25-46.09,11.23-19.75,2.47-35,10.16-50.55,22.61-3.37,2.68-33.73,31.82-33.93,31.69C171,439.44,198.05,425.81,227,412.4Zm-46.74,36c17.06-13.68,34-25.65,55.31-30-12.32,17.76-20.22,36.44-36.69,50.88a158.59,158.59,0,0,1-26.72,18.92c-3.59,2-20.45,13.13-24.16,10.08C139.16,491.12,174.67,452.87,180.21,448.43Zm-33,54.8c1.77-2.71,22.45-11.47,24.12-9.6-5.4,6.48-8,14.48-10.78,22.41-1.27,3.68-5.14,19.78-9.42,19.87C149.44,528.67,142.9,509.87,147.26,503.23Z"/><path class="cls-11" d="M544.83,1744.91c-67.3-44.37-138.58-83.21-196-140.72-26.9-26.94-52.17-56.88-65.07-93.22-13.44-37.9-9.52-77.92,1.34-115.89,11.54-40.3,26.57-79.45,26.23-122a205.39,205.39,0,0,0-27-100.31c-33.28-58.34-88.8-99.8-122.7-157.7-42.28-72.17-33.81-158.68-26.07-238.35,4.07-41.86,8.19-83.8,7-125.91-.87-31.75-6.16-63-13.59-93.84q-1.25-5.16-2.56-10.28t-2.66-10.09c-.57-2.09-1.15-4.19-1.73-6.28-.29-1-.57-2.08-.86-3.11C99.7,451,62,375.7,8.27,317c-13.87-15.16,6.8,5.34-8.27-8.82l1.16,45.25c15.6,15.89,0,0,12.81,18.27A546.65,546.65,0,0,1,73.75,480.82a554.72,554.72,0,0,1,19.13,56.05q2.28,8,4.35,16.14,6.13,24.07,10.43,48.57c7.07,40.09,5.9,80.84,2.71,121.26-6.44,81.61-21.79,166,.14,246.56,10.13,37.21,28.9,70.25,52.67,100.39,20.57,26.08,44,49.67,65.14,75.29,20.47,24.83,38.49,52,47.12,83.33,10.38,37.75,5.7,76-5.23,113-11.79,39.94-25.77,78.84-25.06,121.07.65,38.53,13.67,74.83,34.94,106.71,44.77,67.1,113.68,115.23,180.77,157.69,34,21.55,68.52,42.5,101.13,66.22,31.35,22.81,62.81,48.09,84.78,80.44a224.69,224.69,0,0,1,17.1,30l30.71-4a252.52,252.52,0,0,0-55.25-80.83C610.7,1790.64,578.25,1766.94,544.83,1744.91Z"/><g class="cls-12"><path class="cls-3" d="M759.89,865.76a79.2,79.2,0,0,1,7.56-11.84c.86-1.12-1,1.15-.05.06.43-.5.85-1,1.28-1.52.7-.81,1.41-1.61,2.14-2.4q2.63-2.85,5.48-5.52c1.73-1.63,3.52-3.2,5.35-4.72,1.09-.91,2.2-1.8,3.32-2.68.44-.34.95-.67,1.36-1-1.39,1.28-1.23.92.15-.09,4.28-3.09,8.72-6,13.28-8.6,1-.6,2.06-1.18,3.1-1.76,2.75-1.56-2.74,1.44-.83.45l2-1c2.38-1.23,4.78-2.4,7.2-3.53,1.21-.56,2.43-1.1,3.65-1.64s5.94-2.3.13-.1c2.46-.93,4.89-1.93,7.36-2.82,1.36-.49,2.72-1,4.09-1.42,1.61-.53,5.81-1.65-.88.25,2.55-.72,5.09-1.49,7.66-2.15a24,24,0,0,0,3.58-.87c.14-.06-5.52,1.18-2.7.61l1.57-.32q1.73-.36,3.48-.66c1-.17,3.37-.13,4.17-.66.06,0-5,.6-2.42.32l1.48-.17c1.08-.12,2.17-.22,3.26-.31s2.12-.13,3.18-.19,2.86.06-2,0l2.43,0q9.15,0,18.29.23c5.46.17,10.92.43,16.36.84q3.76.27,7.51.66l3.21.34c2.72.3-2.31-.31-.52-.06l1.92.26a156.39,156.39,0,0,1,25.24,5.38c1.69.53,3.38,1.1,5.05,1.7.55.2,3.55,1.41.87.31.93.38,1.86.75,2.78,1.15a94.94,94.94,0,0,1,9.42,4.69c14.48,8.21,26.08,20.24,36.34,33.17l-1.09-1.37c17.15,21.7,32.16,45.14,43.07,70.6a261.67,261.67,0,0,1,20.79,85,228.67,228.67,0,0,1-1.83,48.42l.26-1.74a199.14,199.14,0,0,1-22.93,67.9q-4.35,7.75-9.42,15.08a153.14,153.14,0,0,1-10.69,13.91,195.43,195.43,0,0,1-13.52,14.23c-2.12,2-4.27,4-6.52,5.91-.57.47-1.13.94-1.71,1.39-.19.16-2.54,1.74-.78.62s-.64.43-.82.55c-.73.51-1.46,1-2.19,1.48q-1.86,1.22-3.76,2.34c-.76.44-1.61.82-2.32,1.32.18-.13,3.51-1.81,1.2-.67-1.34.67-2.67,1.35-4,2s-7.56,3-1.48.73c-2.74,1-5.77,2.7-8.67,3.12,0,0,5.23-1.57,2.28-.72l-2.7.78q-2.5.69-5,1.31c-.77.18-1.55.35-2.32.54,6-1.5,3.25-.72,1.8-.42s-2.83.57-4.25.83c-1.59.29-3.18.57-4.77.82s-8.3.85-2.11.34c-6.91.57-13.77,1.41-20.7,1.73-1.55.07-3.5-.21-5,.18.28-.07,3.78-.07,1.06,0l-3,0q-5,0-10,0-10.3-.16-20.59-.81c-3.14-.19-6.28-.39-9.41-.67l-1.76-.17c-3.06-.26,2.8.41-.26,0-1.62-.22-3.25-.46-4.86-.74a142.73,142.73,0,0,1-18.13-4.34,147.38,147.38,0,0,1-36.93-17.4,127.5,127.5,0,0,1-30.7-27.39l1.09,1.37c-11.51-14.77-18.75-32.84-16-51.77l-.26,1.73c1.36-8.54,4.67-16.79,8.3-24.61a116.3,116.3,0,0,1,6.48-12.11c1.22-2,2.49-3.87,3.85-5.73.63-.86,1.26-1.72,1.93-2.55-.94,1.17,0,0,.21-.21.5-.56,1-1.14,1.49-1.7a62.61,62.61,0,0,1,4.77-4.73c.77-.69,1.59-1.32,2.37-2,1.33-1.13-2,1.34-.52.39.61-.4,1.2-.84,1.81-1.23s3.7-2.19,1.23-.8.76-.28,1.34-.57c-5.16,2.63-1.76.81-.25.26,2.55-.93,5-2.1,7.51-3.2,2.86-1.26-.83.42-1.18.47a12.71,12.71,0,0,0,2.11-.84c1.23-.48,2.46-1,3.69-1.4s2.45-.89,3.69-1.31l2.11-.71c3.27-1.11-3.63,1.08-1.27.39,2.62-.76,5.25-1.52,7.9-2.2,1.22-.31,2.45-.59,3.68-.89,2.44-.59-4.35.93-1.9.43l2.63-.55q3.68-.74,7.38-1.32a42.52,42.52,0,0,1,4.22-.64c-.27,0-4.5.56-1.5.2l2.11-.25c5.45-.63,10.92-1.05,16.4-1.31l3.71-.16c2.75-.11-.5,0-.87,0,.69-.06,1.43,0,2.12,0,2.84-.05,5.68-.06,8.52-.05q8,.06,16.05.4c22.49.91,44.92,3,67.42,3.84a533.15,533.15,0,0,0,70.8-2.67c20.06-1.94,40.34-4.6,59.38-11.52,15.84-5.76,29.8-14.44,40-28s16.08-30.19,19-46.74c6.64-38-.21-79.05-19.63-112.53q-3.45-5.94-7.46-11.52l-36.59,11.47c25.91,10.49,47.79,28.94,65.12,50.62l-1.08-1.37c18.37,23.21,32.14,50.5,38.31,79.54.49,2.28,5.21,2.62,6.63,2.66a45.79,45.79,0,0,0,11.24-1.29,51.65,51.65,0,0,0,11.83-3.91c2.68-1.35,6.34-3,7.72-5.82,18-37.32,40.3-72.38,60.22-108.68,5.57-10.14,11-20.39,16-30.81l-37.42,8.36c1.64,70.27-3.66,140.69,2.2,210.84,3.91,46.81,11.71,98.71,46.26,133.77a80.74,80.74,0,0,0,30.25,19.39c14.93,5.45,31,5.06,46.55,2.93a51.12,51.12,0,0,0,14.36-4.48c2.11-1,6.71-3.24,7.72-5.81,2.51-6.39-13.29-3.92-15.08-3.67,6.68-.91-.5,0-2.08.06-1.23.07-3.93-.24.79,0-.79,0-1.61,0-2.41,0-1.7,0-3.4-.16-5.1-.27-3.16-.2,2.29.4-.17,0-.75-.12-1.5-.22-2.25-.36a66.6,66.6,0,0,1-9.33-2.32c-.69-.23-1.37-.48-2.06-.72-2.3-.78,1.8.81-.42-.16-1.43-.62-2.86-1.24-4.25-1.94-11.19-5.56-20.56-14.06-28.31-23.77l1.09,1.37c-20.32-25.81-29.53-58.23-34.1-90.24-7.39-51.88-7-104.42-6.23-156.69.42-29.35.93-58.7.24-88,0-2.24-5.71-2.63-6.62-2.66a45.82,45.82,0,0,0-11.25,1.29,52.06,52.06,0,0,0-11.82,3.91c-2.69,1.35-6.35,3-7.72,5.82-18,37.32-40.31,72.38-60.23,108.68-5.57,10.14-11,20.39-16,30.81l37.41-8.36c-9.32-43.87-36-85.75-71.78-112.8A143.75,143.75,0,0,0,1105.37,817c-6.81-2.76-15.07-.76-21.79,1.35a39.51,39.51,0,0,0-10.39,4.5c-1.14.79-5.75,3.74-4.4,5.62,18.9,26.35,28.64,59.14,29.51,91.41a159.87,159.87,0,0,1-1.58,27.31l.26-1.73a124.86,124.86,0,0,1-10.21,34.67,92.28,92.28,0,0,1-7.58,13.24c-.63.91-1.3,1.79-2,2.68-1.29,1.75,1-1.15.11-.13-.36.39-.68.82-1,1.22a60.5,60.5,0,0,1-4.51,4.69c-.67.61-1.35,1.22-2,1.8-1,.83-3.79,2.41-.2.26-1.87,1.12-3.66,2.44-5.53,3.59s4.15-2.13.62-.36c-.92.46-1.86.88-2.79,1.31-3.07,1.43,4.76-1.84,1.14-.47-1.21.46-2.42.89-3.65,1.32-2.83,1,5-1.49,2.75-.85l-1.62.48c-1.1.31-2.21.61-3.32.89s-5,1.17-.92.25-.72.13-1.8.33c-2.54.49-5.1.92-7.66,1.31l-4,.58c6.52-1,.69-.11-.85.07-13.67,1.62-27.46,2.9-41.21,3.58-1.93.1-3.86.17-5.78.24-2.85.1.14,0,.6,0-1.14.08-2.31.05-3.45.07-3.8,0-7.6,0-11.41,0-7.87-.1-15.73-.41-23.59-.82-30.24-1.58-60.36-4.55-90.67-3.38a272.86,272.86,0,0,0-49.85,6.7,225.75,225.75,0,0,0-26,7.6c-4.32,1.54-8.55,3.28-12.78,5.05-1.06.44-2.11.89-3.16,1.35-1.44.63-2.46.29,1.39-.58-2.86.65-5.75,2.19-8.39,3.42-24,11.14-39.9,35.86-46.6,60.88-12.9,48.14,34.41,87.08,74.11,102.82a155.15,155.15,0,0,0,37.48,10,340.54,340.54,0,0,0,40.64,2.38c31.46.25,63.27-3,93.07-13.56,14.36-5.1,28-12.06,40-21.54,10-7.88,18.7-17.54,26.61-27.42A194.94,194.94,0,0,0,1067,1085.5c14.17-45.33,12.15-94.68-1.84-139.77a274.12,274.12,0,0,0-29.89-64.83c-10.57-16.75-22.45-33.49-36.25-47.75a108.58,108.58,0,0,0-40.88-26.7c-19.76-7.34-41.45-9.27-62.36-10.09-13-.51-26.35-1-39.31.6a223.16,223.16,0,0,0-44.29,10.41c-25,8.53-49.85,21.37-69.37,39.42-7.95,7.35-15.14,15.93-20.07,25.6-3.12,6.1,13.1,4,15.08,3.66a54.71,54.71,0,0,0,14.36-4.48c2.72-1.36,6.26-3,7.72-5.81Z"/></g><path class="cls-9" d="M1588.52,1914a164.83,164.83,0,0,1,21.94-13.91c7.54-4.13,11.77-7.43,19-1.47,13.1,10.84,24.07,24.28,37.46,34.7,13.12,10.22,25,21.91,38.59,31.5,26.25,18.53,56.34,28.77,87.88,23.18,33.46-5.93,56.75-34,84.82-52.17,13.9-9,30.8-12.54,46.55-16.31,3-.73,15.48-1,11.76-5.59-1.24-1.53-5.35-1.43-7-1.84-4.09-1-8.15-2.52-12.19-3.79-15-4.73-28.52-12.53-42.47-20.07-14.88-8-30.27-15.47-44.81-24.16-14.3-8.56-28.61-17.58-43.3-25.31-15.52-8.18-29.44-12.7-46.73-14.26-15.79-1.44-34.27-.84-49,6.18-13.68,6.51-27,18.68-38.6,28.66-12.14,10.46-21.4,24.23-36.11,30.52-15,6.4-28.2,12.87-41.13,23.17,15.74-44.88,31-90.24,55.93-130.55a167,167,0,0,1,41.08-44.79c15.47-11.85,34.72-19.26,51.69-28.49,8.45-4.6,15.75-11.32,24.23-15.63s17.54-4.8,26.83-4.06c19.55,1.55,38.83,3.76,58.45,1.43s36.18-16.57,50.59-29.77,22.88-36.29,30.55-54.47c8.23-19.53,14.47-37.74,26.76-55.1,6.7-9.48,13.49-18.89,20.49-28.12,6.32-8.36,15.09-15.29,20.73-24-6.24-1.55-13.7,1.6-20,3-8.31,1.8-16.62,3.56-24.93,5.34-14.66,3.14-29.8,5.53-44.11,10.17-24.71,8-49.13,18.32-69.48,35.47-20.55,17.31-39.81,40-50.12,65.73-5.59,14-9.33,28.34-12.8,43-3.33,14.09-9.27,22.9-20.83,30.86-11.88,8.18-25.62,13.38-38.57,19.35-12.62,5.81-24.81,12.38-37,19,9.18-20.83,22-41,33.21-60.63,10.66-18.64,22-37,30.46-57,8.1-19.16,16.21-39.11,20.89-59.56,4.17-18.16,6.11-36.79,9.91-55,3.72-17.76,15-36.29,25.71-50.1,5-6.48,10.36-12.17,17.36-16.22,8.91-5.15,17.9-10.14,26.83-15.25,15.25-8.71,33.8-16.86,46-30.18,12.91-14.15,18-33.44,20.06-52.46,2.14-19.37,4.81-38.71,7.18-58a303.3,303.3,0,0,1,6-31.37c1.26-5.47,7.31-17.65,3.71-22.76-4.53,4.83-7.28,10.87-12.25,15.37a67.85,67.85,0,0,1-11.66,8.49c-11,6.39-22,12.82-32.57,20.13-19.19,13.29-46.55,30.62-53.68,55.36-3.78,13.1-6.93,27.82-7.34,41.52-.42,14.14.63,28.18-.63,42.31-1.18,13.18-3.12,25.76-10.13,37s-15.62,21.49-23,32.57c-.54-7.88,1.65-16.59,2.35-24.47a181,181,0,0,0,.46-22.58c-.53-15.7-2.65-31.52-2.83-47.18-.18-15.24,7.45-28.45,12.73-42.17,5.52-14.32,11.37-28.76,13.13-44.26,3.63-31.94-4.93-65-21.25-91.68-8.11-13.23-16.44-26.37-25.24-39.11-4.66-6.76-9.38-13.46-14.09-20.18-3.32-4.74-7-13.18-12.28-15.42-.67,3.32.59,5.82,1,9.16a118.63,118.63,0,0,1,.24,11.93,87.67,87.67,0,0,1-2.63,24c-4,14.72-9.81,28.82-13.88,43.5a150.14,150.14,0,0,0,.62,82.27c8.17,27.54,28.47,45.27,46,66.31,3.84,4.6,9.5,10.47,11.15,16.41,1.56,5.59.6,12.44.76,18.22.37,14.3.73,27.94-.45,42.25-2.27,27.71-4.39,55.1-9.47,82.42-2.76-7.61-5.2-15.36-8-23-2.54-6.88-9-14.35-10-21.41s1.56-14.24.43-21.58a87.49,87.49,0,0,0-7.34-23.32c-12.87-28-39.35-44.4-65.7-55-25.88-10.43-52-9.43-79.17-11.21-3.43-.23-17-3.51-19.59-1.36-3.42,2.81,3.23,5.35,5.38,7.06,10,8,16.36,22.14,20.49,34.32,8.91,26.27,19,51.36,40.57,68.94s47.66,28.81,75,20.3c7-2.18,13.63-5.44,20.6-7.69,5.17-1.67,7.51-2.46,10.31,2.66,6.2,11.36,9.7,25,10.61,38,1,14.85-.88,26-5.88,39.94s-9.86,27.64-16,41c-25.34,54.67-60,102.73-89.39,154.68-2.71-.46-6.7-22.38-7.83-25.91-2.94-9.2-6.57-17.57-8-27.24-2.71-18,.38-35.89,2.74-53.77,5-37.71-1.47-77.42-23.87-108.28-9.35-12.87-22.69-23.46-35-33a455.37,455.37,0,0,1-36.84-31.87c-10.82-10.36-19.92-22.52-28.19-35.22-6.29-9.66-6.9.1-6.89,6.9,0,7,.26,13.92.31,20.91.11,17.53-3.85,34.94-5.19,52.4-1.3,17-1.24,33.88-1.44,50.87-.2,17.62,1.2,32.9,8.78,48.91,6.59,13.92,13,29.85,23.77,40.69,23.08,23.12,53,27.89,81.12,41,13.71,6.38,20.77,17.7,25.37,32.6,4.5,14.59,6.75,29.61-1.87,42.53s-13.86,28.7-20,43c-6.76,15.89-12.56,32-18.2,48.34-5.25,15.2-10.66,30.15-15.44,45.52-2.41,7.77-5.17,15.34-7.33,23.21-1.78,6.5-2.69,17.91-6.79,23.06-6.4-16.08-13.39-32-19.34-48.3s3.51-30.21,10.69-44.06c7.3-14.08,12.65-28.13,15.18-44,2.22-13.91-4.63-32.74-10.64-44.89-13.11-26.46-31.64-48.87-42.15-76.86-2.58-6.86-6.19-13.43-9-20.25-2.32-5.68-3.88-5.24-4.58.63-1.67,14.15-3.12,28.28-5.65,42.31-2.45,13.57-8.39,25.48-13.12,38.22a113.52,113.52,0,0,0-7.43,40c.11,15.63,1.31,29.66,6.78,44.31,4.86,13,12.72,23.11,21.46,33.5,8.42,10,20.9,14.85,29.18,24.68,8.86,10.51,12.66,26.69,16.92,39.7,4.68,14.28,8.16,27.71,6.33,42.5h9.7c2.75-14.63,6.28-29.13,10.23-43.53C1567.88,1938.31,1574.3,1924.89,1588.52,1914Zm46-19.39c3.29-2.13,10.48-.73,14.41-1.31a147,147,0,0,0,16.4-3.79c11-3,21-8.69,30.86-14.34,10.21-5.84,20.11-14.19,31.19-18,3.9-1.35,26.92-5.4,28.41-.89-11.18,8.09-19.59,16.64-28.67,27.31a105.08,105.08,0,0,1-29.65,24c-12,6.7-23,12.24-37,9.82C1649.53,1915.45,1640.91,1903.64,1634.56,1894.6Zm26.13,26.62c22.53-.46,40.65-12.64,60.7-22.45,10.55-5.16,20.62-9.56,32.35-10.47,8.65-.67,21-.12,28.56,4.83-9.91,2.73-20.28,1.77-30.33,5.41s-19.8,9.52-29.17,14.66c-10.31,5.64-21.13,13.26-32.62,15.7a48.19,48.19,0,0,1-16.2.64C1668.25,1928.75,1665.05,1925,1660.69,1921.22Zm14.13,12.35c11.32-1.72,21-3.12,31.46-8.36,9.13-4.57,18.12-9.46,27.22-14.12,17.42-8.92,35.3-17.83,55.2-13-8.65,8.42-17.5,16.72-25.34,26-7.71,9.13-13.47,16.15-24.82,19.64-11.75,3.61-20.91,2.34-32.87,1.34-5.19-.44-12.11.44-17.08-1.22C1683.9,1942.28,1678.5,1936.87,1674.82,1933.57Zm75.67,48.19a92.64,92.64,0,0,1-29.33-11.57c-3.32-2-28.12-18.28-27.41-21,1.38-5.2,26.69,3.26,30.79,4.76,10.55,3.87,19.11,9.84,29,15,20.25,10.43,42.43,10.27,64.07,7C1797.07,1988,1772.77,1986.72,1750.49,1981.76Zm107.12-34.58q-8.7,6.57-17.29,13.33c-5.83,4.59-10.48,8.52-17.52,10.76s-13.91,4.12-21.13,4.74c-12.7,1.1-27.43-.58-39.33-5.61-4.15-1.75-35.56-17.63-34.92-19.62,12,1.47,23.75-.46,35.73-1.13,12.69-.7,25.4.51,38.08,1a149.29,149.29,0,0,0,39.12-3.35c11.77-2.58,21.92-8.69,33.11-12.86C1870.84,1939.62,1862.25,1943.67,1857.61,1947.18Zm62.86-33.75c3.77,1.5,3.15.36,1,1.88-2.62,1.81-7.76,2.26-10.8,3.19q-9,2.74-18,5.65c-12.88,4.17-25,9.87-37.47,15-13.15,5.45-26.66,9.21-40.85,9.29-13.56.08-29-.13-42.27-3,12.41-7,22.77-15.21,34.28-23.63,11-8,23.31-1.54,35.51-.52,13.26,1.11,27-2.67,39.83-5.94C1893.06,1912.5,1909,1908.85,1920.47,1913.43Zm-34.37-15.17c7,3.38,14.2,6.54,21,10.38-14.8,1.64-28.83,5.18-43.37,8.33-15.44,3.35-30.47,1.28-45.65-2.7,4.56-6.64,14.68-11.94,21.44-15.71s14.59-8,22.35-8.33C1870.58,1889.89,1878.41,1894.54,1886.1,1898.26Zm-39.71-19.71c2.69,1.41,16,6.92,15.4,8.64-22.19.82-43.08,21.36-59.76,35-9.44,7.73-19.56,15.42-30.72,20.12a78.62,78.62,0,0,1-16.33,4.8c-4.29.79-14.14,3.92-17.79.81,6-2.37,11.93-4.27,17-8.59,5.18-4.46,9.27-10.43,13.86-15.55a344.74,344.74,0,0,1,28.73-27.78c10-8.82,20.33-16.49,33.24-20C1836.8,1874.2,1840.21,1875.31,1846.39,1878.55Zm-15.08-6.9a241.93,241.93,0,0,0-29.15,15.45c-9.54,5.91-16.06,2.7-26.21.46-9.52-2.09-19.32-2.87-29-1.27-3.06.51-24,8.86-24.59,8,14.77-17.76,28.19-35.4,51-41.28,9-2.33,20.38-3.6,28.81,1.23C1812,1859.84,1821.26,1866.29,1831.31,1871.65Zm-41.62-24.18c-10.75,1.63-21.34,5-32.23,4.7-10.34-.28-22-2.19-31.79,2-5.65,2.39-52.87,34.51-55.13,30.19,7.59-8.32,15.17-16.61,22.68-25.14,8-9,16.76-19,27.3-24.66C1741.45,1823.33,1771.17,1835.46,1789.69,1847.47Zm-144,22.36c6.89-7.18,15.15-13.44,23.08-19.28A109.9,109.9,0,0,1,1695,1836c3.18-1.2,24.59-8.6,25.86-5.61-17.83,11.55-29.1,27.12-43.53,42.67a52,52,0,0,1-20.73,14.18c-4,1.54-7.63,3.75-11.93,4.08-2.36.18-12.73.81-14.24-1.18C1627.51,1886.2,1643.17,1872.42,1645.66,1869.83Zm145.82-182.67c16.82-12.29,27.93-26.63,35.28-47.08,6.72-18.71,10.55-42.23,24.92-56.39,1,5.82,3.07,12,3.81,17.77s-2.22,8.5-4.33,13.7c-4.26,10.51-6.29,22-10.94,32.33a109.86,109.86,0,0,1-20.63,30.13C1811.37,1686,1803,1690.07,1791.48,1687.16Zm11.2-54.41c0-16,1-33.25,12.88-44.88,1.32,18.31,7.21,36.34,5.57,54.75-1.26,14.21-14.92,33.79-27.55,39.06a216.42,216.42,0,0,0,7.93-25.94C1803.39,1647.86,1802.65,1640.76,1802.68,1632.75Zm64.56,29.49c-.72,4.75-1.25,5.9-5.11,8.76a72.75,72.75,0,0,1-11.22,6.75,92.4,92.4,0,0,1-24.54,7.71c-1.6.29-12,2.86-12.66,1.61s6.6-6.9,7.85-8.26a117.44,117.44,0,0,0,14.36-19.29c9.4-15.77,12.09-34.84,21.74-50.12,3.44,9.11,7.89,18.38,10.26,27.88C1870.14,1646.18,1868.56,1653.51,1867.24,1662.24Zm5.72.18a71.86,71.86,0,0,0,4.26-30.09c-.5-8.57-4.15-20-.78-28,2.35-5.59,32.19-41.27,35.11-39.28-5.6,18.84-8,38-11.42,57.3C1897.6,1636.82,1885.24,1655.2,1873,1662.42Zm100.57-157.31c-14.49,18.3-29.27,35.85-41.77,55.92a195,195,0,0,0-15.14,30.5c-1.33,3.31-10.54,31-13.11,29.93,3.31-24.67,4.68-49.66,17.09-71.61,6.07-10.74,12.28-21.43,21.12-29.9C1950.94,1511.12,1961.62,1507.81,1973.53,1505.11Zm-43.37,9.42c4.53-1,11.07-3.91,15.65-3.14a307.77,307.77,0,0,0-20.26,24.08c-5.51,7.46-8.87,16.22-14.36,23.76-5.72,7.84-12.25,14.76-18.94,21.66-2.71,2.8-15.88,20.61-18.54,20.08-.9-21.89,4.41-44.13,16.73-62,5.45-7.9,12.94-17.16,22-20.3C1918.06,1516.71,1924.34,1515.86,1930.16,1514.53Zm-61.39,21.63c7.75-7.26,23-13.18,33.27-13.9-14.75,17.81-26.72,35.25-29.91,59.5-1.67,12.74-.77,24.32,1.07,36.8.46,3.1,1.33,36.79-1.17,35.9-.43-30-19.59-54.78-18.49-85.32A46.37,46.37,0,0,1,1868.77,1536.16Zm-6.49,1.61c-5,8.37-10.08,16.22-11.07,26.34-.45,4.55.58,9.49-.2,13.93-.65,3.68-1.91,3.93-4.41,6.75-4.07,4.6-21.29,48.6-21.44,50.18-2.76-20.4-10.08-41.89-4.68-62.44C1825.38,1553.94,1847.09,1545.31,1862.28,1537.77ZM1788,1603.48c2-7.55,9.91-15,14.63-20.89,5.3-6.56,10.88-13.36,17.5-18.46,2.23,4-5.32,17.86-7.36,21.27-4,6.61-8.12,12.65-10.5,20.18-2.8,8.86-2.23,17.12-1.81,26.28.13,2.73,1.32,21.72-1.77,21.42-2.1-9-6-17.26-8.08-26.23C1789,1620.16,1786.11,1610.56,1788,1603.48Zm-27.09,72.73c3.5-12.74,6.09-25.6,10-38.23,1-3.32,11.13-30.83,13.7-29.56,1.55,11.49,3.23,21.49,7.63,32.2,1.85,4.49,3.55,9.47,3.58,14.45,0,2.15-.8,4-.89,6.07q-1.87,2.16-.09,3.42a1.31,1.31,0,0,1,.6,1.86c-.62,4.62-3.94,12-6.66,15.66-2.92,3.94-6.06,3.55-10.49,3.34-3.72-.18-15.28.9-18.06-1.58s1.29-5.78,3-8.29Zm60.71-260.51c-3.93,2.4-17.72,14.19-21.93,12.71,11.28-13.42,24.86-26.6,32.56-42.82,2.23-4.69,21.76-49,24.23-47.14-2.36,10.67-3.38,21.46-5.29,32.21-1.75,9.86-6.54,17.8-11.77,26C1834.36,1404.68,1829.52,1410.88,1821.62,1415.7Zm12.63-58.66c-3.7,3.41-32.86,34.17-34,33.49-1.64-15.5,13.22-31.7,24.39-40.37,7.25-5.63,15.14-10.3,22.29-16.06,6.18-5,11.66-11.53,18.4-15.6,1.55,1.88-11.8,18.17-13.64,20.61C1846.52,1345.87,1840.42,1351.38,1834.25,1357Zm39.63,21.68c-3.5,7.25-12.77,13.47-19,17.68-2.33,1.56-18.47,13-19.73,11.36,9-11.82,16.86-25,19.42-40.14,1.24-7.28,1.56-14.77,3.23-22,.87-3.79,3.56-16.22,7.67-17.41,1.24,9.15,1.92,17.17,5.3,25.87C1873.54,1361.32,1877.54,1371.12,1873.88,1378.72Zm4.62-5.66c-1.69-.63-1.15-9-1.64-11-.95-3.88-2.68-7.56-4-11.29-2.79-7.82-4.6-15.89-4.22-24.28.32-7,4.48-15.29,10.26-18.7,2.4-1.41,17.7-11,18.45-10.42C1892.92,1322.76,1889.85,1350,1878.5,1373.06Zm28.24-135c-3.58,14.44-6.81,28.38-8,43.29-.86,11-9.3,21.6-20.33,23.27,1.89-6.08,4.93-10.17,5.51-16.92.6-7,1.47-13.28,4-19.82C1889.28,1264.25,1902.08,1234.66,1906.74,1238Zm-50.42,34.85c3.56-2.29,31.47-21.58,32.58-20.37a142.66,142.66,0,0,1-30.15,28.26c-3.26,2.22-33,19.35-34.35,17.69A185.42,185.42,0,0,1,1856.32,1272.89ZM1842.93,1292c9.91-4.44,18.72-9.14,27.09-16.43,2.38-2.08,18.93-19.65,20-19.06a98,98,0,0,0-9.2,32c-1.38,11.25-6.93,17.72-17.35,19.94-12,2.55-24.27,4.63-35.49,10a60.92,60.92,0,0,0-14.65,9.57c-1.65,1.49-7.61,10.2-9.45,9C1813.05,1316.18,1822.34,1301.19,1842.93,1292Zm-41,53.8c2.77-7,11.07-14.48,16.75-19.07,14-11.29,32.12-11.09,48.32-16.14-1.8,6.68-11.32,12.27-16.13,16.37-6.28,5.36-12.87,9.95-19.5,14.77a124.94,124.94,0,0,0-18.94,17c-2.18,2.4-12.16,17.66-13.74,17.31C1798.63,1366.82,1798.52,1354.37,1801.91,1345.76Zm-3.8,57.91c1.7-8.49,5.92-13.24,11.63-19,11.35-11.46,22.89-22.54,34.45-33.75,2.91,2.13-15.76,37.3-18.25,41.48-8.73,14.68-22.47,25-31.3,39.51C1795.75,1422.56,1796.27,1412.88,1798.11,1403.67Zm-29.14-65.9c-1.32,3.14-9.66,29.25-10.91,29.2,1.08-21.08,4.35-40.63-2.74-61.27-3.76-10.92-5.44-20.8-6.76-32.35-.44-3.88-6.73-28.51-5.41-29.29,7.17,9.39,14.06,18.94,19.87,29.36,5.51,9.86,8.69,21.28,11.86,32.19C1778.53,1318.15,1773.74,1326.46,1769,1337.77Zm-36.44-164c9,6.69,16.3,20.52,22.84,29.9a172.43,172.43,0,0,1,18,33.66c5,12,7.39,23,8.72,35.92.35,3.37.56,34.31-2.23,33.63-.9-13-1-25.58-5.1-38.09a154.29,154.29,0,0,0-14.58-31.29c-6.33-10.41-13.74-20.21-19.24-31.16C1736.51,1197.55,1730.39,1183.86,1732.53,1173.73Zm-16.58.44c1.89-6.52,2.51-13,3.38-19.71,4.17,5,8.77,10.13,10.33,16.77,1.47,6.28,1.31,12.8,2.91,19.2,3.23,12.87,9.37,24.12,16.79,34.77,8.07,11.59,15.43,23.69,20.27,37.21,1.51,4.2,11.92,36.1,6.83,37.88-6-13.74-9.62-27-17.94-39.64-7.7-11.7-16.51-23.4-25.27-34.24-7.83-9.7-18-21.21-20.54-34.14C1711.45,1185.91,1714.22,1180.14,1716,1174.17Zm-15.16,45.51c1.56-7.91,3.52-21,9.23-26.83,4,8.79,7.84,16.73,13.29,24.71,5.11,7.49,10.32,15,14.21,23.28,7.67,16.34,8.24,34.77,10.63,52.51-8.61-3.85-17-14.8-24-21.29s-14.55-13.3-19.56-21.93C1698.78,1240.16,1698.58,1230.88,1700.79,1219.68Zm-2.27,25c12.64,19.86,35,39.79,35.43,65.65-9.41-8.79-20.84-17.25-28.41-28C1698.11,1271.83,1696.58,1257.47,1698.52,1244.67Zm39.24,105c-15.58-16.64-38.68-42.42-36.25-68.22,8.33,11.63,20.93,19.55,29,31.32,3.51,5.16,3.36,11.61,4.13,17.7C1735,1333.09,1738.49,1349.23,1737.76,1349.7Zm17.14,17c-5-1.45-10.48-9.67-12.72-14.33a59.13,59.13,0,0,1-5.29-22.87c-.34-8.55.17-17.08-1.63-25.51a127.14,127.14,0,0,0-4.12-13.26c-.88-2.62-3.74-8.15-3-10.81,12.47,10.69,22.94,19.65,27.28,36.66C1759.58,1333,1757.76,1350.19,1754.9,1366.68Zm-38.26,71c-4.19-2.88-8.31-6.15-13-8.14-5-2.13-10.67-1.6-15.43-4-10.77-5.54-12.84-22.27-16.94-33.22C1681.2,1391.72,1720,1434.86,1716.64,1437.68Zm-111.48,9.61a139.34,139.34,0,0,1-12.8-26.12c-1.52-4.12-11.25-27.46-8.68-29.66,13.11,14.87,22.59,31.26,31.9,49,4.44,8.49,8,17.84,13.53,25.61a95.37,95.37,0,0,0,9.2,10.36c2.07,2.15,8.44,6.72,8.65,9.75C1629.53,1477.54,1615.86,1464.17,1605.16,1447.29Zm8.53-13.81c-5.57-11-10.38-21.79-17.57-31.77s-17.31-17.8-25.33-27.39c6.11-.53,15.47-2.63,21.21-.35,4.59,1.83,8.93,6.92,11.76,11,7.69,11.09,8.74,24.73,11.13,37.79,3,16.33,9.69,28.57,20,40.85,2.23,2.65,26,26.29,25.95,26.46C1637.37,1478.61,1625.49,1456.81,1613.69,1433.48Zm-15.31-59.16c15.36.71,29.32,10.3,37.58,23.83,4.24,6.93,6.46,14.45,8.41,22.37.75,3.07,8,22.79,7.46,23.26-6.51-4.26-12.55-8.53-19.56-11.9-6.21-3-11.91-6.47-14.88-13.33-3.32-7.69-3.21-16.68-6.42-24.58A69.17,69.17,0,0,0,1598.38,1374.32Zm84.95,120.08c-5,7.75-36-19.65-39.68-24-11.34-13.45-21.37-26.86-25.85-44.4,14.16,9.24,28.77,14.76,40.65,27.65a132.2,132.2,0,0,1,15.86,21.2C1676.05,1477.72,1685.43,1491.13,1683.33,1494.4Zm3.74.3c-2.15-1.33-10-18.06-8.64-19.57,5.21,4.13,11.43,5.87,17.59,7.69,2.87.85,15.29,3.15,15.6,6.71C1706.24,1491.4,1692.36,1497.94,1687.07,1494.7Zm21-11.16c-3-1.11-6.06-2.12-9.08-3.08-6.09-2-12-3.2-17.42-7-9.9-6.88-18.84-19-25.27-29.37-6.93-11.17-8.64-23.61-13.36-35.77a70.65,70.65,0,0,0-23.55-31.59c11.91-.91,21,12,26.61,21.47,6.62,11.08,8.7,24.25,14.59,35.8,6.2,12.14,13.56,16.1,24.26,22.89a74.58,74.58,0,0,1,14.06,12.23c3.46,3.66,11.16,9,12.9,13.78C1713.12,1486.5,1710.69,1484.52,1708.08,1483.54Zm-74.62-104.7c15.82,2,26.76,15.87,34.24,30.09,3.73,7.11,5.34,14.67,7.36,22.43,1.74,6.64,4.63,13.31,5.55,20.13-13.49-6.91-19.9-20.15-24.28-34.81C1651.81,1401.52,1643.89,1390.08,1633.46,1378.84ZM1722,1482.48c-5.25,7.24-17.54-11-21.43-14.89-8-7.92-16.09-14.52-20.15-25.64-3.92-10.77-4.59-22.48-9.8-32.79-1.6-3.16-18.33-24.56-17.61-25.54,11.38,4.16,16.82,11.1,20.72,23.22,3.12,9.72,5,19.56,11.65,27.52,7.37,8.87,17,15.86,24.91,24.22C1714.35,1462.89,1726.3,1476.53,1722,1482.48Zm1.72-9a115.71,115.71,0,0,0-18.9-24.81c-2-2-21.28-19.85-20.06-20.75,11.15,3.22,21.26,4.29,30.41,12.56,5.32,4.81,7.49,8.71,8.39,16.07C1723.82,1458.84,1726.05,1472.42,1723.7,1473.44Zm-142.26,75.74a104.25,104.25,0,0,1,21.61,35.75,137.56,137.56,0,0,1,5.12,21.08c.87,5,5,19.14,2.44,23.35-4.36-6.84-7.55-14.39-12.83-20.56-4.86-5.66-10.28-10.34-14.26-16.84-4.85-7.93-5.61-13.46-3.93-22.52C1580.08,1566.74,1580.25,1549.73,1581.44,1549.18ZM1553.27,1523c7.31,5.68,14.89,11.5,21.08,18.58,5.8,6.64,4.83,17,3.38,25.38-1.58,9.11-5.14,17.69-6.35,26.9-1.14,8.71.75,15.32,3.9,23.29-12.12-9.73-19.85-29.39-20.88-45.11-.6-9.36,1.66-18.56,1.35-27.92C1555.64,1540.77,1551.06,1524.7,1553.27,1523Zm-3,2.65a66.51,66.51,0,0,1,2.73,27.12c-1.1,10.6-2.52,19.19.63,29.64.94,3.11,7.48,20.65,6.47,21.36-5-6.42-12.11-15.5-14.74-23.43-.93-2.78-.32-4.76-.27-7.5.07-4-1.19-8.2-1.44-12.21-.57-9.35,1.74-18.58.34-27.91-1.14-7.71-5.3-13.93-6.8-21.18C1543.1,1515.17,1548,1518.62,1550.26,1525.69Zm-15,108.36c-12.33-17.52-33-38.7-32.81-62.41,15.15,17.6,32.89,33.72,45.2,53.79,3.57,5.83,27.42,62,23.94,63.63-3.81-5.34-8.56-5.34-13-9.08-3.79-3.17-4-8.25-5.34-13C1549.59,1654.54,1542.48,1644.37,1535.22,1634.05Zm17.57,43.15c-8.43-2.52-18.59-5.8-25-12.37-5.94-6.07-10.62-14.87-14.18-22.66-3.92-8.58-8.18-18.44-9.56-27.9-.49-3.38-3-25.36-.11-26.07,7.35,16,16.48,29.31,26.34,43.61C1540.36,1646.47,1548.82,1659.32,1552.79,1677.2Zm-10-64.22c-10.49-11.94-22.6-22.35-32.71-34.63-9.57-11.63-16.65-27.41-19.54-42.43,10.53,12.93,22.23,24.16,33.17,36.61A73,73,0,0,1,1536,1591.9C1537.11,1594.39,1544,1612.11,1542.79,1613Zm-44.57-138.68c19.56,20.91,54.44,44.85,42,80.13-6-15.14-9.57-28.36-20.13-41C1516.79,1509.55,1493.21,1478.14,1498.22,1474.3Zm-10.69,28.45c.44-6.65,1.21-13.29,1.86-19.92.34-3.46-.3-14.61,2.06-17,5.22,10.91,9,22.26,14.82,33,5.48,10.13,13.73,17.77,19.91,27.39a87.34,87.34,0,0,1,12.31,32.53,170.4,170.4,0,0,1,1.87,19.42c.21,3.85,2.55,15.51.17,18.45-5-11.69-10.73-21.43-19.68-30.27-8.57-8.46-17.19-16.94-24.29-26.88C1487.87,1527.23,1486.55,1517.68,1487.53,1502.75Zm-3.77,81.16c-.56-9.74-.08-19.7,0-29.46.08-7.48,0-16.39,2.26-23.49,2.62,8.31,4,16.93,8,24.59,3.89,7.43,4.81,16.07,5.44,24.47.69,9.25.5,18.56,1.21,27.81.21,2.73,4.72,21.71,4.45,21.93-5.64-6-12.44-12.28-16-20S1484.25,1592.54,1483.76,1583.91Zm94.71,119.61c-17.69-9.19-36.77-17.56-52.48-30.36-14.63-11.91-27.36-32.76-32.76-51.35,3.75-2.19,17.41,21.23,19.21,24.8,4.49,8.92,9.79,18.45,18.21,23.77,9.45,6,20.4,8.84,30.33,13.61C1564.31,1685.59,1580.43,1700.67,1578.47,1703.52Zm-4.62-18a177.25,177.25,0,0,1-8.56-24.37c-1.36-4.71-2.8-9.36-4.51-13.94-1.12-3-4.27-8-3.6-11.36,6,5.61,11,12.56,16.51,18.77,5.16,5.85,10.78,11.3,15.35,17.71,8.58,12,15.54,28.58,19.07,43.14C1593.32,1709.24,1581,1701.22,1573.85,1685.5Zm36.83-19.89c-.21,3.38-3.66,32.37-5.09,32.48-5.09-10-9.16-20-16.1-28.91-6.78-8.74-14.42-16.8-21.44-25.35-6.67-8.12-15.68-16.13-19.74-26.17-3.86-9.53-5.32-23.25-4.74-33.51,4.15,2,8.22,12.41,11,16.35a143.45,143.45,0,0,0,11.62,14.54c8,8.6,17.53,15.74,26.77,22.73,5.06,3.83,10.3,7.58,14.59,12.41S1611.09,1659.17,1610.68,1665.61Zm-29.61-44.92c-8.83-11.54-8.26-23.32-5-37,12,21.37,32.08,36.45,35.57,62.32C1601.66,1637.88,1589,1631.07,1581.07,1620.69Zm-39.33,238.54c-1.39,3.57-10.38,30.35-13,29.91a259.7,259.7,0,0,0-6.11-61.12c-4.31-19.39-11.63-37.44-16-56.82,2-1,18.43,20.48,20.71,23.11,7.65,8.81,13.64,20.64,17.26,32C1548.46,1838.39,1546.18,1847.9,1541.74,1859.23Zm-51.15-139.48c.4-4.63-.29-13.61,2.21-17.48,8.66,21.55,17.75,44,30.6,63.2,6.19,9.24,13.25,17.91,17.78,28.27,3.53,8.06,10,24.3,7,33.24-5.07-11.49-9.48-23.24-17.34-33-7.42-9.18-15.55-17.73-22.8-27.08s-12.1-19.37-15.79-30.94A36.9,36.9,0,0,1,1490.59,1719.75Zm-3.67,21.34c7.78,18.07,18.23,36.41,18.45,56.78.22,19.84-4.57,39.92-1.9,59.67-3.06,1.57-15.71-19.74-17.43-22.8a119.92,119.92,0,0,1-11.75-29.5C1468.91,1783.34,1479.91,1761.43,1486.92,1741.09Zm34.43,171c-9.29-3-19.15-14.13-26.1-21.09a91,91,0,0,1-18.22-26.74c-4.87-10.48-6.93-21.29-8.14-32.86-.33-3.18-1.91-30.51,1.32-30.42,3.21,10.44,6.31,20.91,11.14,30.67s11.8,17.64,18.11,26.34a152.42,152.42,0,0,1,15.92,28.37C1518.75,1893.94,1524.24,1903.4,1521.35,1912.06Zm3.66-10.75c-2.57,0-5.6-12.8-6.92-15.9-2.6-6.07-6.32-11.66-8.08-18.05-7.93-7.69-4.71-28-3.86-38,.59-6.84,1.45-13.64,1.78-20.51.16-3.49-1.73-16.57.23-19.07C1522.24,1824,1530.62,1864,1525,1901.31Z"/></g></g></svg>