<svg xmlns="http://www.w3.org/2000/svg" viewBox="0 0 1080 1080"><defs><style>.cls-1{fill:#20090a;}.cls-2{opacity:0.93;}.cls-3{fill:#f2b9ac;}</style></defs><g id="Capa_2" data-name="Capa 2"><g id="Capa_1-2" data-name="Capa 1"><rect class="cls-1" width="1080" height="1080"/><g class="cls-2"><path class="cls-3" d="M262.74,387.62c5.06-9.91,12.05-17.69,20.54-24.95,1.05-.9,2.13-1.79,3.21-2.66l2-1.55c.18-.15,1.34-1,.21-.17,2.52-1.88,5.11-3.66,7.75-5.37s5.15-3.23,7.79-4.74l1.9-1.07c2.56-1.45-2,1,.61-.33,1.56-.8,3.11-1.61,4.68-2.39q3.91-1.93,7.92-3.67l2-.86c1.72-.74-2.91,1.15-.21.09,1.61-.63,3.21-1.26,4.82-1.86,2.65-1,5.34-1.85,8-2.75-4.16,1.4.3-.07,1.35-.37,1.57-.45,3.15-.87,4.73-1.27.78-.2,1.57-.38,2.35-.57,2.74-.68-2.66.52-.79.17,1.27-.24,2.54-.53,3.82-.77s2.75-.5,4.14-.71a12,12,0,0,0,1.48-.22c-3.55,1-.65.09.42,0s2.36-.24,3.55-.33c.93-.06,2.66.19,3.45-.19-1.42.68-1.93,0-.45,0h2.44c2.06,0,4.11,0,6.17,0a344.07,344.07,0,0,1,38.1,2.11c-1.82-.22,1.78.24,2.29.31,1.22.17,2.44.36,3.66.55,2.56.41,5.12.87,7.67,1.4a132.18,132.18,0,0,1,13.29,3.43,74.23,74.23,0,0,1,11.27,4.36A93.07,93.07,0,0,1,453.37,349a107.82,107.82,0,0,1,19,15.56c14.05,14.29,26,31.35,36.42,48.39a268.06,268.06,0,0,1,29.48,67.35c13.15,46.68,13.3,97.61-5.19,142.9a184.4,184.4,0,0,1-40.87,61.29c-2.21,2.19-4.47,4.34-6.79,6.42-1.18,1-2.38,2.08-3.62,3.06-.56.45-1.12.9-1.7,1.33,1.23-.91-1.07.73-1.33.91-2.5,1.73-5.1,3.32-7.76,4.8.34-.19,2-1,.15-.1l-2.36,1.19c-1.6.78-3.22,1.5-4.84,2.21-2.08.91.26,0,.53-.21a15.63,15.63,0,0,1-2.52,1c-1.41.53-2.83,1-4.26,1.52l-.87.28q-2.13.69.82-.24a7.29,7.29,0,0,1-1.76.52c-1.77.52-3.56,1-5.35,1.46l-2.72.66c-1,.25-1.71.93.77-.17A21.52,21.52,0,0,1,444,710q-2.57.48-5.15.9c-.79.12-1.57.25-2.36.36-.33.05-4,.54-2.19.32,2-.24-1.15.13-1.25.14l-2.4.27q-2.65.29-5.31.51c-3.56.3-7.13.52-10.71.68-1.62.08-3.25.14-4.88.18,2.06,0-.11,0-.62,0l-2.44,0c-3.58,0-7.16,0-10.74,0q-10.35-.2-20.66-.87c-3.19-.2-6.37-.45-9.55-.73-.2,0-1.66-.19-.33,0-.87-.1-1.74-.22-2.61-.35q-2.61-.39-5.21-.87a145.65,145.65,0,0,1-67.41-32.31c-16.77-14.4-30.84-34.44-30.86-57.35,0-11.56,4.4-22.63,9.35-32.91a102.2,102.2,0,0,1,9.65-16.27,59.41,59.41,0,0,1,5.87-6.8c1-1,2.1-2,3.21-3,.44-.38.89-.74,1.33-1.11q1.24-1,.24-.21.71-.51,1.41-1c.69-.46,4.33-2.41,2-1.27.5-.25,1-.49,1.53-.75,2.61-1.35-2.64.81.16-.07a64.06,64.06,0,0,0,6.71-2.72c.27-.11,3.72-1.57,1.14-.51,1-.42,2.07-.83,3.11-1.23,1.71-.66,3.44-1.29,5.17-1.9,1-.36,2.07-.69,3.1-1,.61-.2,2.5-.9-.32.09,3.69-1.3,7.58-2.14,11.37-3.07,3.5-.87-2.9.56.63-.14l2.59-.53c1.89-.37,3.78-.71,5.69-1,1.72-.28,3.45-.54,5.17-.79-.45.07-2.47.3-.11,0l4.14-.48c3.46-.36,6.92-.64,10.38-.86L358,543l3.13-.11c-1.85.06,1,0,1.36,0,30.35-.55,60.57,3.07,90.86,4.13a488.16,488.16,0,0,0,91.41-5.49c21.49-3.32,45-9.72,60.56-25.93,16-16.7,23.27-40.24,25.77-62.76a168.12,168.12,0,0,0-10.36-78,147.44,147.44,0,0,0-17.76-33.25l-25.33,7.94c41,16.59,72.34,53,89.8,92.9a176.1,176.1,0,0,1,11,33.94c.76,3.59,10.59,1.35,12.37.95a35.71,35.71,0,0,0,8.18-2.71c1.86-.93,4.39-2.05,5.35-4C722,434,743.89,399.57,763.45,363.93c5.46-10,10.75-20,15.69-30.25l-25.9,5.79c1.61,69-3.6,138.13,2.16,207,3.82,45.7,11.36,96.7,45.1,130.94a78.1,78.1,0,0,0,29,18.79c13.57,4.94,28.11,4.91,42.24,3a35.45,35.45,0,0,0,9.94-3.1c1.34-.65,4.77-2.29,5.35-4,1.49-4.47-9-2.74-10.45-2.54,3.65-.5-.81.06-1.75.13s-4.77.16-2,.16c-2.85,0-5.67-.1-8.51-.38,1.88.18-1.73-.27-2.18-.35-1.21-.21-2.41-.45-3.6-.73a66.76,66.76,0,0,1-7.59-2.25,71.5,71.5,0,0,1-12.26-6.33A79.91,79.91,0,0,1,827.62,671c-14.73-13.81-24.47-32.38-31.3-51.16-8.46-23.29-11.77-47.93-14.13-72.49-3.23-33.55-3.68-67.3-3.43-101,.29-38,1.44-75.93.56-113.89,0-1.55-4-1.82-4.59-1.84a31.34,31.34,0,0,0-7.78.9,35.63,35.63,0,0,0-8.19,2.71c-1.86.93-4.39,2-5.35,4-17.7,36.64-39.57,71.06-59.13,106.71-5.46,10-10.75,20-15.69,30.24l25.91-5.78c-9.13-42.94-35.15-83.88-70.17-110.36a141.43,141.43,0,0,0-32.15-18.39c-4.71-1.91-10.43-.53-15.08.93-1.35.42-12.16,4.33-10.24,7,15.79,22,25,48.56,28,75.39,2.89,25.61.3,52.6-11.31,75.91a84.63,84.63,0,0,1-8,13.23s-1.33,1.7-.52.69c-.39.49-.8,1-1.21,1.45-.67.77-1.36,1.53-2.07,2.27a58.35,58.35,0,0,1-4.82,4.48l-1.39,1.1c1.74-1.4.64-.46.17-.14-.89.61-1.78,1.22-2.69,1.8-.66.41-1.81,1.43-2.55,1.5,1.81-.18,1.8-.91.36-.22-.54.26-1.08.54-1.62.79s-1.12.49-1.66.76c-1.73.83,1.2-.52,1.3-.52-1,0-2.53,1-3.53,1.33l-1.21.41c-2.43.85,3.45-1,1-.28-1.29.37-2.57.74-3.87,1.08-1.12.29-2.25.53-3.37.82,4.73-1.23.06,0-1.07.18-2.87.56-5.77,1-8.67,1.46l-2,.29c-1,.15-2.4.83.38,0a23.42,23.42,0,0,1-4.2.52c-3.57.42-7.15.79-10.72,1.13-7.48.71-15,1.39-22.45,1.92q-5.7.41-11.41.6c.08,0-3.63.11-1.72.06l-2.82,0c-2.43,0-4.86,0-7.29,0-31.35-.1-62.54-3.92-93.87-4.44-34.11-.57-68.36,3.5-100.13,16.52-2.39,1-4.78,2-7.15,3,2.73-1.22,0-.11-.46.08-1.27.48-2.6,1-3.81,1.56a60.19,60.19,0,0,0-10.7,5.88,71,71,0,0,0-15.19,14.48c-8,10.08-13.44,21.78-17.75,33.82-8.21,22.94-.64,46,14.09,64.34,16.27,20.23,39.42,34.25,63.67,42.84,26.69,9.44,55.91,10,83.94,9.1,30.19-.91,62-5.82,88.92-20.16,24.07-12.81,43.2-34.53,57.4-57.52,26.46-42.83,33.84-95,25.92-144.29a262.75,262.75,0,0,0-22.92-72.39c-10.22-21.15-23.4-40.83-38-59.2-10.81-13.6-23.12-26.1-38.68-34.2-18.23-9.49-38.79-12.92-59.07-14.56a356.73,356.73,0,0,0-42.25-1c-12.89.51-25.85,3.16-38.2,6.81-26.51,7.84-52.62,20.18-73.45,38.64-8.4,7.44-16,16.2-21.09,26.23-2.16,4.22,9.07,2.8,10.44,2.54a38.28,38.28,0,0,0,9.94-3.1c1.89-.95,4.33-2,5.34-4Z"/></g></g></g></svg>