<svg xmlns="http://www.w3.org/2000/svg" viewBox="0 0 1080 1080"><defs><style>.cls-1{fill:#20090a;}.cls-2{opacity:0.93;}.cls-3{fill:#f2b9ac;}.cls-4{fill:#d98977;}</style></defs><g id="Capa_2" data-name="Capa 2"><g id="Capa_1-2" data-name="Capa 1"><rect class="cls-1" width="1080" height="1080"/><g class="cls-2"><path class="cls-3" d="M242.52,302.83c5.06-9.92,12-17.69,20.53-24.95,1.06-.91,2.13-1.79,3.22-2.66.65-.53,1.32-1,2-1.56.19-.15,1.34-1,.21-.17q3.78-2.81,7.75-5.37c2.55-1.65,5.16-3.23,7.8-4.74l1.9-1.07c2.56-1.45-2,1,.6-.33,1.56-.8,3.11-1.61,4.68-2.39,2.61-1.28,5.25-2.51,7.92-3.67l2-.85c1.73-.75-2.9,1.14-.2.08,1.6-.62,3.2-1.26,4.82-1.86,2.65-1,5.34-1.85,8-2.75-4.15,1.4.3-.07,1.36-.37,1.57-.44,3.14-.87,4.73-1.27.78-.2,1.56-.38,2.34-.57,2.74-.68-2.66.53-.79.17,1.28-.24,2.55-.53,3.83-.77s2.75-.5,4.13-.71a12,12,0,0,0,1.48-.22c-3.54,1-.65.09.42,0s2.37-.24,3.55-.32c.94-.07,2.66.18,3.46-.2-1.42.68-1.93,0-.46,0h2.44l6.17,0a346.24,346.24,0,0,1,38.1,2.11c-1.81-.22,1.78.24,2.29.31l3.66.55c2.57.41,5.13.87,7.67,1.4a132.37,132.37,0,0,1,13.3,3.43,74.52,74.52,0,0,1,11.26,4.36,94.7,94.7,0,0,1,10.46,5.73,107.51,107.51,0,0,1,19,15.57c14.05,14.28,26,31.35,36.43,48.38A268.78,268.78,0,0,1,518,395.47c13.14,46.68,13.29,97.61-5.2,142.9A184.42,184.42,0,0,1,472,599.66c-2.22,2.19-4.48,4.34-6.8,6.42-1.18,1-2.38,2.08-3.61,3.07-.56.44-1.12.89-1.7,1.32,1.23-.91-1.07.74-1.33.91-2.51,1.73-5.11,3.32-7.77,4.8.34-.19,2-1,.16-.1-.79.4-1.57.81-2.37,1.19-1.59.78-3.21,1.5-4.84,2.21-2.08.92.26-.05.53-.21a15.89,15.89,0,0,1-2.51,1c-1.41.53-2.84,1-4.27,1.52l-.86.29c-1.43.46-1.16.37.81-.25a7.66,7.66,0,0,1-1.76.53c-1.77.52-3.56,1-5.35,1.45-.9.23-1.81.44-2.71.66s-1.72.93.76-.16a22.13,22.13,0,0,1-4.62.93q-2.57.48-5.15.9l-2.36.37c-.33,0-4,.53-2.18.31s-1.16.13-1.26.14l-2.4.27q-2.65.28-5.31.51-5.34.45-10.7.69l-4.89.18c2.06-.06-.1,0-.61,0l-2.45,0c-3.58,0-7.16,0-10.74,0q-10.33-.2-20.66-.87c-3.19-.2-6.36-.44-9.54-.73-.21,0-1.67-.18-.34,0-.87-.1-1.74-.22-2.6-.35-1.75-.25-3.48-.54-5.22-.87a145.69,145.69,0,0,1-67.41-32.31C253.15,579,239.09,559,239.06,536.07c0-11.56,4.41-22.63,9.35-32.9a102.59,102.59,0,0,1,9.65-16.28,59.36,59.36,0,0,1,5.88-6.8c1-1,2.1-2,3.2-3,.44-.38.89-.74,1.34-1.11q1.23-1,.24-.21.69-.51,1.41-1c.68-.45,4.32-2.41,1.95-1.27.51-.24,1-.49,1.54-.75,2.6-1.34-2.64.82.16-.06a68.24,68.24,0,0,0,6.71-2.72c.27-.12,3.72-1.57,1.14-.52,1-.42,2.06-.83,3.1-1.23q2.58-1,5.17-1.89l3.11-1.05c.6-.21,2.49-.91-.33.09,3.69-1.3,7.59-2.14,11.37-3.08,3.51-.86-2.89.56.64-.14l2.58-.52c1.89-.38,3.79-.72,5.69-1,1.72-.28,3.45-.53,5.18-.78-.46.06-2.48.3-.12,0,1.38-.17,2.76-.33,4.15-.47,3.45-.37,6.91-.65,10.38-.87,1.73-.1,3.46-.19,5.2-.27l3.12-.11c-1.85.06,1,0,1.36,0,30.35-.54,60.57,3.08,90.87,4.14a488.86,488.86,0,0,0,91.4-5.5c21.49-3.32,45-9.72,60.56-25.93,16-16.7,23.28-40.23,25.77-62.76a168,168,0,0,0-10.36-78,147.25,147.25,0,0,0-17.76-33.25l-25.32,7.94c41,16.6,72.33,53,89.8,92.9a175.94,175.94,0,0,1,11,33.95c.76,3.59,10.59,1.34,12.37.94a35.79,35.79,0,0,0,8.19-2.71c1.86-.93,4.39-2.05,5.34-4,17.7-36.65,39.57-71.06,59.13-106.71,5.47-10,10.75-20,15.69-30.24L733,254.67c1.61,69-3.59,138.13,2.16,207,3.82,45.69,11.36,96.69,45.1,130.93a78.06,78.06,0,0,0,29,18.79c13.57,5,28.11,4.91,42.25,3a35.56,35.56,0,0,0,9.94-3.1c1.33-.65,4.76-2.29,5.34-4,1.49-4.47-9-2.74-10.44-2.53,3.64-.5-.82,0-1.76.12s-4.77.17-2,.16a83.09,83.09,0,0,1-8.5-.38c1.88.19-1.74-.27-2.19-.35-1.2-.21-2.4-.45-3.6-.73a64.62,64.62,0,0,1-7.58-2.25A70.17,70.17,0,0,1,818.47,595a79.75,79.75,0,0,1-11.08-8.74c-14.72-13.8-24.47-32.37-31.3-51.16-8.46-23.29-11.77-47.92-14.13-72.48-3.23-33.56-3.67-67.31-3.42-101,.28-38,1.44-75.92.55-113.89,0-1.55-4-1.82-4.59-1.83a31.44,31.44,0,0,0-7.78.89,35.79,35.79,0,0,0-8.19,2.71c-1.86.93-4.39,2.05-5.34,4-17.7,36.65-39.57,71.07-59.13,106.71-5.47,10-10.75,20-15.69,30.25l25.9-5.79c-9.12-42.94-35.15-83.88-70.16-110.35A141.31,141.31,0,0,0,582,255.89c-4.71-1.91-10.43-.52-15.09.93-1.35.42-12.16,4.33-10.24,7,15.8,22,25,48.55,28,75.38,2.88,25.61.3,52.6-11.31,75.91a85,85,0,0,1-8.06,13.23s-1.33,1.7-.51.7l-1.21,1.44c-.67.77-1.36,1.53-2.07,2.27a55.33,55.33,0,0,1-4.83,4.48c-.45.37-.92.73-1.38,1.1,1.74-1.4.63-.46.16-.14-.89.61-1.77,1.22-2.69,1.8-.66.41-1.81,1.43-2.54,1.5,1.8-.18,1.8-.91.36-.22l-1.63.8c-.55.26-1.11.49-1.66.75-1.72.84,1.21-.52,1.3-.52-1,0-2.52,1-3.52,1.33l-1.21.41c-2.44.86,3.44-1,.94-.28-1.28.37-2.57.74-3.87,1.08-1.12.29-2.25.53-3.36.82,4.73-1.23.06,0-1.07.18-2.88.56-5.77,1-8.67,1.47l-2,.28c-1,.15-2.4.83.38,0a23.41,23.41,0,0,1-4.19.51c-3.58.42-7.15.79-10.73,1.13-7.47.72-15,1.39-22.45,1.92q-5.7.4-11.4.61l-1.72,0c-.94,0-1.88,0-2.82.06-2.43,0-4.87.05-7.3,0-31.35-.1-62.53-3.92-93.87-4.44-34.11-.57-68.36,3.5-100.12,16.52-2.4,1-4.79,2-7.15,3,2.73-1.22,0-.11-.47.08-1.27.48-2.59,1-3.8,1.56a60.57,60.57,0,0,0-10.71,5.88A71.22,71.22,0,0,0,234.25,489c-8,10.08-13.43,21.78-17.75,33.83-8.21,22.93-.64,46,14.1,64.34C246.86,607.39,270,621.4,294.27,630c26.69,9.45,55.9,10,83.93,9.1,30.19-.91,62-5.82,88.93-20.16,24.07-12.8,43.19-34.53,57.4-57.52,26.46-42.82,33.83-95,25.91-144.29a262.79,262.79,0,0,0-22.92-72.38c-10.22-21.16-23.39-40.83-38-59.21-10.81-13.6-23.12-26.1-38.67-34.2-18.23-9.49-38.79-12.92-59.08-14.56a354.44,354.44,0,0,0-42.24-1c-12.89.5-25.86,3.15-38.2,6.8-26.52,7.84-52.63,20.18-73.46,38.64-8.39,7.44-16,16.2-21.09,26.23-2.16,4.23,9.07,2.8,10.44,2.54a38.28,38.28,0,0,0,9.94-3.1c1.89-1,4.34-2.05,5.35-4Z"/></g><path class="cls-4" d="M309,777.92c-.44-28.57,37.21-43.77,57.32-23.19L360.92,760c-16.61-15.38-43.16-4.9-43.26,17.92.84,32.17,46,33.92,49.75,2.1H342.54v-7.37h33.52C379.6,819.53,312,824.46,309,777.92Z"/><path class="cls-3" d="M392.52,791.62l-8.65,17.91h-9.74l32.45-65.34L439,809.53h-9.73l-8.65-17.91m0,0-14.06-29.51-14.06,29.51"/><path class="cls-4" d="M487.43,753.68H445.25V746.3h58.4l-44.34,55.86h42.18v7.37H443.08Z"/><path class="cls-4" d="M548.52,753.68H506.34V746.3h58.4L520.4,802.16h42.18v7.37h-58.4Z"/><path class="cls-4" d="M572.84,746.3h46.5v7.38H581.49v19h36.77V780H581.49v22.14h38.94v7.37H572.84Z"/><path class="cls-4" d="M635,746.3h8.66v55.86h34.61v7.37H635Z"/><path class="cls-4" d="M688.53,746.3h8.66v55.86H731.8v7.37H688.53Z"/><path class="cls-3" d="M757.33,791.62l-8.65,17.91h-9.74l32.45-65.34,32.44,65.34H794.1l-8.65-17.91m0,0-14.06-29.51-14.06,29.51"/></g></g></svg>